HIERARCHY
ROOT Hips
{
  OFFSET 9.4129 16.486 -8.0834
  CHANNELS 6 Xposition Yposition Zposition Zrotation Xrotation Yrotation
  JOINT LHipJoint
  {
    OFFSET 0 0 0
    CHANNELS 3 Zrotation Xrotation Yrotation
    JOINT LeftUpLeg
    {
      OFFSET 1.62637 -2.13007 0.746601
      CHANNELS 3 Zrotation Xrotation Yrotation
      JOINT LeftLeg
      {
        OFFSET 2.80646 -7.70519 -0.0234944
        CHANNELS 3 Zrotation Xrotation Yrotation
        JOINT LeftFoot
        {
          OFFSET 2.08318 -6.10983 -0.032223
          CHANNELS 3 Zrotation Xrotation Yrotation
          JOINT LeftToeBase
          {
            OFFSET 0.139283 -0.125841 1.36494
            CHANNELS 3 Zrotation Xrotation Yrotation
            End Site
            {
              OFFSET 0 0 0.342105
            }
          }
        }
      }
    }
  }
  JOINT RHipJoint
  {
    OFFSET 0 0 0
    CHANNELS 3 Zrotation Xrotation Yrotation
    JOINT RightUpLeg
    {
      OFFSET -1.39046 -2.33844 0.741449
      CHANNELS 3 Zrotation Xrotation Yrotation
      JOINT RightLeg
      {
        OFFSET -3.04367 -7.42136 0.0310374
        CHANNELS 3 Zrotation Xrotation Yrotation
        JOINT RightFoot
        {
          OFFSET -2.1875 -5.91845 0.131121
          CHANNELS 3 Zrotation Xrotation Yrotation
          JOINT RightToeBase
          {
            OFFSET -0.0640122 -0.0860605 1.07313
            CHANNELS 3 Zrotation Xrotation Yrotation
            End Site
            {
              OFFSET 0 0 0.435912
            }
          }
        }
      }
    }
  }
  JOINT LowerBack
  {
    OFFSET 0 0 0
    CHANNELS 3 Zrotation Xrotation Yrotation
    JOINT Spine
    {
      OFFSET -0.0156 2.23971 -0.03712
      CHANNELS 3 Zrotation Xrotation Yrotation
      JOINT Spine1
      {
        OFFSET 0.0549 2.19225 -0.19086
        CHANNELS 3 Zrotation Xrotation Yrotation
        JOINT Neck
        {
          OFFSET 0 0 0
          CHANNELS 3 Zrotation Xrotation Yrotation
          JOINT Neck1
          {
            OFFSET -0.237443 2.2954 0.663563
            CHANNELS 3 Zrotation Xrotation Yrotation
            JOINT Head
            {
              OFFSET 0.170218 2.20974 -0.221298
              CHANNELS 3 Zrotation Xrotation Yrotation
              End Site
              {
                OFFSET 0.0419989 0.882168 -0.0845971
              }
            }
          }
        }
        JOINT LeftShoulder
        {
          OFFSET 0 0 0
          CHANNELS 3 Zrotation Xrotation Yrotation
          JOINT LeftArm
          {
            OFFSET 3.2765 0.85634 0.05396
            CHANNELS 3 Zrotation Xrotation Yrotation
            JOINT LeftForeArm
            {
              OFFSET 6.45292 -0.540955 -0.567295
              CHANNELS 3 Zrotation Xrotation Yrotation
              JOINT LeftHand
              {
                OFFSET 2.81502 0.361092 0.0567599
                CHANNELS 3 Zrotation Xrotation Yrotation
                JOINT LeftFingerBase
                {
                  OFFSET 0 0 0
                  CHANNELS 3 Zrotation Xrotation Yrotation
                  JOINT LeftHandIndex1
                  {
                    OFFSET 1.95532 0.113745 0.0161123
                    CHANNELS 3 Zrotation Xrotation Yrotation
                    End Site
                    {
                      OFFSET 0.050857 -0.0347679 -0.0119653
                    }
                  }
                }
                JOINT LThumb
                {
                  OFFSET 0 0 0
                  CHANNELS 3 Zrotation Xrotation Yrotation
                  End Site
                  {
                    OFFSET 0.0811721 0 0.0811721
                  }
                }
              }
            }
          }
        }
        JOINT RightShoulder
        {
          OFFSET 0 0 0
          CHANNELS 3 Zrotation Xrotation Yrotation
          JOINT RightArm
          {
            OFFSET -3.24434 1.02034 0.34688
            CHANNELS 3 Zrotation Xrotation Yrotation
            JOINT RightForeArm
            {
              OFFSET -5.37573 0.97375 -0.0704411
              CHANNELS 3 Zrotation Xrotation Yrotation
              JOINT RightHand
              {
                OFFSET -3.32572 0.0800356 -0.209936
                CHANNELS 3 Zrotation Xrotation Yrotation
                JOINT RightFingerBase
                {
                  OFFSET 0 0 0
                  CHANNELS 3 Zrotation Xrotation Yrotation
                  JOINT RightHandIndex1
                  {
                    OFFSET -1.96114 -0.256446 0.569083
                    CHANNELS 3 Zrotation Xrotation Yrotation
                    End Site
                    {
                      OFFSET -0.0519157 0 0
                    }
                  }
                }
                JOINT RThumb
                {
                  OFFSET 0 0 0
                  CHANNELS 3 Zrotation Xrotation Yrotation
                  End Site
                  {
                    OFFSET -0.0527086 0 0.0527086
                  }
                }
              }
            }
          }
        }
      }
    }
  }
}
MOTION
Frames:	7
Frame Time:	0.0416667
8.7964 15.7773 -30.7435 1.19923 5.10198 4.93972 -1.92764e-016 1.02807e-015 1.02807e-015 -23.8482 18.1215 17.5102 -0.187724 7.65623 2.80442 0.0165522 4.65164 0.60108 -1.21043 -19.0311 -7.21223 -1.92764e-016 1.02807e-015 1.02807e-015 25.5607 -34.6102 14.342 3.55392 31.143 -12.7051 0.0547335 -1.44016 2.07175 0.721339 -14.8412 5.53448 -5.60555 -6.03519 -5.01346 3.05577 -1.32506 -6.41342 5.74994 2.92364 -3.26956 -12.866 -24.7078 -2.06975 13.0649 25.5426 -1.88199 6.63205 12.8469 -0.268727 -1.98785e-016 -9.93923e-017 -3.18055e-015 -62.2803 39.4239 -29.4683 22.6959 -8.79574 -41.9356 17.7335 -16.3962 16.9076 17.6017 -9.62841 -27.7988 -38.7261 -44.91 -41.0701 -4.54526 4.4387 0.768204 -1.98785e-016 -9.93923e-017 -3.18055e-015 83.9091 16.3769 -15.5264 -8.41485 -1.08605 14.6828 17.3893 2.37779 -0.186308 -24.4473 9.20576 -19.3871 7.125 0 9.54166e-015 0.520233 -0.0580036 -51.3643 
8.7118 15.9114 -29.5996 -1.47517 4.15869 5.13626 -6.42545e-017 5.14036e-016 -1.02807e-015 -16.6992 7.23638 14.1963 -3.9799 32.6958 13.5107 -0.745526 8.74556 6.31977 -0.769479 -15.3125 -5.71938 -6.42545e-017 5.14036e-016 -1.02807e-015 28.5553 -29.8664 12.7013 3.84053 32.2013 -13.2509 0.225395 -4.28209 3.63656 0.270927 -9.18214 3.37287 -3.21079 -5.11999 -4.92942 4.14905 -1.65006 -6.4923 5.67718 1.9639 -3.26982 -12.7445 -24.5819 -2.05678 11.9434 25.7537 -1.60274 6.25453 12.8565 -0.287303 -9.93923e-017 -1.98785e-016 -1.59028e-015 -68.8573 42.1236 -21.8778 22.5784 -8.69177 -41.6834 16.9433 -13.87 16.7013 17.1826 -9.6968 -28.5776 -38.7261 -44.91 -41.0701 -4.71313 4.7253 0.0234798 -9.93923e-017 -1.98785e-016 -1.59028e-015 82.4811 13.0595 -13.6665 -7.94973 -0.967783 13.86 17.3975 4.89197 -0.186828 -27.2421 9.60942 -17.964 7.125 3.18055e-015 3.18055e-015 -2.11536 0.194976 -50.2632 
8.6435 16.1065 -28.5706 -5.02363 3.7672 6.56655 5.78291e-016 0 -0 -10.5554 -3.22371 9.80597 -11.8878 49.6504 25.3678 -1.16349 4.56209 11.7556 -1.58603 -21.618 -8.29322 5.78291e-016 0 -0 31.1634 -24.8148 8.33016 3.07241 29.2219 -11.7475 0.532388 -6.37109 5.67416 0.324703 -10.0401 3.69476 0.36788 -4.47219 -4.25408 4.76679 -1.90281 -5.74228 4.45238 0.977474 -2.86892 -13.2669 -24.079 -2.92688 13.5926 24.8983 -3.13933 6.51793 12.6567 -0.800144 2.48481e-017 0 7.95139e-016 -73.3363 46.4457 -16.6003 20.8711 -7.27842 -38.1027 16.1224 -11.1837 16.5232 15.4308 -8.79566 -28.9853 -38.7261 -44.91 -41.0701 -6.03019 6.0749 -0.0520925 2.48481e-017 0 7.95139e-016 83.8866 15.0044 -12.9187 -8.5663 -1.12615 14.9513 17.3833 0.530197 -0.186155 -28.7836 11.2968 -19.6245 7.125 0 -1.59028e-015 -4.00126 0.524457 -52.4553 
8.6132 16.3288 -27.6133 -4.69172 3.65449 6.9029 -7.71054e-016 1.02807e-015 2.05615e-015 -11.9756 -12.1819 5.12531 -20.4123 58.1581 35.8783 0.175566 -3.17983 13.6532 -0.636653 -13.9676 -5.19408 -7.71054e-016 1.02807e-015 2.05615e-015 29.6662 -20.0535 3.51473 2.23643 25.3395 -9.92478 0.903075 -6.71553 8.15523 0.211879 -8.13013 2.98048 -0.334778 -4.36375 -3.39576 4.70641 -1.50817 -4.57969 4.81849 1.29067 -2.29358 -14.2598 -23.2295 -3.92177 14.6563 23.0328 -4.43976 6.66388 11.9962 -1.34007 -3.10601e-017 0 -0 -77.6264 48.6652 -13.1062 17.6079 -5.01849 -31.5975 15.4013 -8.77988 16.3982 14.4965 -7.57369 -27.011 -38.7261 -44.91 -41.0701 -7.24233 6.75806 2.20009 -3.10601e-017 0 -0 84.1006 19.2348 -10.0622 -8.81512 -1.19361 15.3925 17.3688 -3.92388 -0.186585 -26.8528 10.0908 -19.0886 7.125 -3.18055e-015 -0 -1.90848 0.216526 -51.4709 
8.5877 16.4557 -26.6831 -4.57999 4.00393 5.36624 -6.42545e-016 5.14036e-016 1.02807e-015 -13.1852 -20.7848 2.80177 -25.1921 61.179 41.4131 1.39392 -8.26303 12.8548 -0.0629483 -4.44423 -1.62108 -6.42545e-016 5.14036e-016 1.02807e-015 30.195 -14.6563 3.32191 1.68925 22.2638 -8.56932 1.08726 -8.47186 8.38737 0.253003 -8.87606 3.25846 -0.390601 -4.44777 -2.11768 4.50497 -1.598 -2.86401 4.7317 1.09406 -1.42946 -14.6272 -22.8278 -4.40166 15.4703 23.1447 -5.28351 6.83456 12.1174 -1.66623 -5.77718e-016 0 -0 -83.8736 46.2264 -7.23225 13.687 -2.94689 -24.1943 13.9221 -3.75556 16.2365 9.8425 -4.23655 -23.0644 -38.7261 -44.91 -41.0701 -12.0019 9.56358 6.99205 -5.77718e-016 0 -0 83.6754 25.758 -8.09005 -10.4075 -1.67462 18.2336 17.3682 -4.10018 -0.186625 -23.2765 12.4065 -26.539 7.125 -3.18055e-015 -4.77083e-015 0.329662 -0.0826692 -59.0833 
8.6046 16.4628 -25.7567 -4.15336 4.50787 2.96779 5.14036e-016 5.14036e-016 -5.14036e-016 -14.8065 -28.6384 1.71473 -23.916 60.455 39.9515 2.24186 -9.4451 30.9979 -0.21289 -8.15035 -2.98801 5.14036e-016 5.14036e-016 -5.14036e-016 30.0932 -10.6824 3.01001 1.49872 21.0514 -8.05309 1.50805 -9.81635 9.96089 0.202901 -7.95781 2.91641 0.0837504 -4.58934 -0.606745 3.7818 -1.70101 -0.855677 3.80876 0.880576 -0.42015 -14.6027 -23.1484 -5.00496 15.7258 23.5816 -6.22745 6.69134 12.4942 -2.04198 4.87644e-016 -9.93923e-017 1.98785e-016 -88.7611 37.8847 -1.13731 9.8745 -1.50405 -17.2794 11.2962 5.26157 16.2711 7.95952 -3.29801 -22.3649 -38.7261 -44.91 -41.0701 -13.7435 10.6439 7.94018 4.87644e-016 -9.93923e-017 1.98785e-016 82.9821 34.3304 -6.3756 -12.3766 -2.39139 21.7921 17.3524 -8.89755 -0.188415 -25.121 13.2719 -26.0871 7.125 3.18055e-015 -7.95139e-016 -1.54023 0.384825 -59.0255 
8.627 16.3826 -24.8641 -4.81911 4.79494 1.59799 6.74673e-016 1.02807e-015 -0 -15.6359 -35.3236 -0.484253 -18.1635 56.3916 33.2056 2.55572 -16.1303 7.95164 -0.0558529 -4.18792 -1.52718 6.74673e-016 1.02807e-015 -0 30.9406 -7.56927 1.60358 1.44138 20.669 -7.8921 1.98315 -11.6546 11.2605 0.384879 -10.9175 4.02578 1.42421 -4.1576 0.0676781 3.61509 -1.6822 0.00300129 2.91982 0.6029 0.0072004 -14.7774 -23.0701 -4.82063 15.9407 23.0382 -5.91189 6.87168 12.239 -1.8913 -3.52532e-016 4.96962e-017 1.98785e-016 -90.9125 23.0795 4.17161 7.12569 -0.775557 -12.407 7.48133 17.7863 17.0381 8.31571 -3.56501 -23.0459 -38.7261 -44.91 -41.0701 -13.2855 10.5494 7.21122 -3.52532e-016 4.96962e-017 1.98785e-016 79.8103 42.8891 -2.82471 -14.7287 -3.43551 26.1269 17.3368 -13.5073 -0.191443 -25.2051 12.188 -24.1586 7.125 3.18055e-015 -1.59028e-015 -1.18882 0.249847 -56.867 
